<svg version="1.1" id="Layer_1" xmlns="http://www.w3.org/2000/svg" xmlns:xlink="http://www.w3.org/1999/xlink" x="0px" y="0px"
	 width="100%" viewBox="0 0 534 214" enable-background="new 0 0 534 214" xml:space="preserve">
<path fill="#FEFEFC" opacity="1.000000" stroke="none" 
	d="
M459.000000,1.000000 
	C484.317841,1.000000 509.635651,1.000000 534.976746,1.000000 
	C534.976746,72.274170 534.976746,143.548340 534.976746,215.000000 
	C393.645813,215.000000 252.291565,215.000000 110.375015,214.649902 
	C115.264702,206.062073 122.883728,200.708679 132.250092,197.912430 
	C149.578125,192.739334 163.988876,198.942825 177.172058,210.968506 
	C179.565811,201.183289 181.637711,192.504730 183.852432,183.862778 
	C184.229080,182.393021 185.218430,181.080261 186.248779,179.922943 
	C188.693604,188.219986 190.814407,196.289093 193.068161,204.864120 
	C195.865097,202.668640 198.048981,200.900391 200.288177,199.205276 
	C218.007141,185.791611 241.973328,188.437042 256.301117,205.373993 
	C260.712769,210.589020 266.254395,210.629242 270.642365,205.478058 
	C285.294830,188.277023 309.100677,185.723373 327.024353,199.438049 
	C329.201782,201.104156 331.346619,202.812866 334.063171,204.937057 
	C336.555206,194.928375 338.830688,185.789459 341.468903,176.769318 
	C344.530701,186.652969 347.229767,196.417847 350.047638,206.612518 
	C352.346985,204.926331 354.096741,203.683716 355.803925,202.385132 
	C375.844147,187.141159 399.364471,189.494629 415.965363,208.413849 
	C419.324402,212.242004 425.800079,212.127060 429.237091,208.178268 
	C445.390076,189.620178 469.404816,187.252548 489.066162,202.261200 
	C490.944641,203.695129 492.906860,205.019363 495.303772,206.733124 
	C498.485138,193.700714 501.524048,181.622971 504.263489,169.477676 
	C504.549255,168.210724 503.472931,165.951248 502.330383,165.158081 
	C494.655945,159.830460 488.583282,153.126923 483.859619,144.707153 
	C482.162476,140.240677 480.579681,136.111801 479.422058,131.932251 
	C482.150848,131.608109 484.471466,131.433929 486.755035,131.043365 
	C495.129089,129.611130 496.231506,127.723595 494.095001,120.689430 
	C488.270111,121.416557 482.699799,122.111908 477.091675,122.393951 
	C477.117462,119.572929 477.181122,117.165222 477.684204,114.657318 
	C483.668274,114.557137 489.212952,114.557137 494.664276,114.557137 
	C495.914185,101.944733 492.846619,96.581032 483.093506,92.857101 
	C488.837555,86.060173 494.430573,79.580078 500.332458,72.947342 
	C502.471954,71.655472 504.183380,70.208466 506.158875,69.442955 
	C509.925018,67.983559 510.407410,65.731445 509.352051,62.042900 
	C507.117096,54.231606 505.141144,46.329807 503.486786,38.376144 
	C502.732910,34.751781 501.407318,34.117905 497.792358,34.571178 
	C476.667236,37.220024 459.635620,22.332268 459.000000,1.000000 
M516.846130,104.943291 
	C519.773132,104.785187 522.700134,104.627075 525.580688,104.471481 
	C525.580688,100.834846 525.580688,97.467438 525.580688,92.836655 
	C520.936951,94.660378 517.055054,96.184921 513.057861,97.754738 
	C512.872498,96.791054 512.632812,95.544861 512.450989,94.599396 
	C508.581696,94.599396 504.955841,94.599396 501.468170,94.599396 
	C501.468170,106.697533 501.468170,118.596321 501.468170,130.476761 
	C505.353516,130.476761 508.892639,130.476761 512.754395,130.476761 
	C512.754395,123.283173 512.864624,116.481308 512.697754,109.686249 
	C512.634827,107.123886 513.309326,105.533165 516.846130,104.943291 
z"/>
<path fill="#D29502" opacity="1.000000" stroke="none" 
	d="
M458.531342,1.000000 
	C459.635620,22.332268 476.667236,37.220024 497.792358,34.571178 
	C501.407318,34.117905 502.732910,34.751781 503.486786,38.376144 
	C505.141144,46.329807 507.117096,54.231606 509.352051,62.042900 
	C510.407410,65.731445 509.925018,67.983559 506.158875,69.442955 
	C504.183380,70.208466 502.471954,71.655472 499.866089,72.882889 
	C493.604462,72.981934 488.118011,72.999054 482.631592,73.002686 
	C436.747223,73.033066 390.862854,73.060959 344.672791,72.933403 
	C343.706451,72.138687 343.045746,71.500168 342.562561,70.548309 
	C348.773346,67.840363 348.828674,63.720516 347.123047,58.133469 
	C344.875061,50.769932 343.640472,43.097012 342.254272,35.269306 
	C344.102203,34.882004 345.692108,34.548149 347.226105,34.718338 
	C368.389343,37.066349 385.539368,22.181931 386.000000,1.000000 
	C410.020905,1.000000 434.041779,1.000000 458.531342,1.000000 
z"/>
<path fill="#BD520A" opacity="1.000000" stroke="none" 
	d="
M68.000000,1.000000 
	C92.020897,1.000000 116.041786,1.000000 140.462708,1.416793 
	C142.580368,25.333357 161.604263,38.413918 180.512650,35.148277 
	C181.903885,34.907993 183.491653,35.805653 184.973267,36.571083 
	C183.377808,43.730076 182.026688,50.556923 180.145477,57.234444 
	C178.576523,62.803749 177.297531,67.872215 184.587631,70.293793 
	C185.129333,70.473732 185.472977,71.249924 185.621979,72.018539 
	C184.897583,72.556458 184.459885,72.824768 183.555328,73.034882 
	C130.385117,73.014214 77.681747,73.051743 24.663067,72.942017 
	C23.495132,72.275162 22.700035,71.597366 21.780111,71.262901 
	C17.407839,69.673256 16.322226,67.108398 17.770815,62.465996 
	C20.045128,55.177349 21.763367,47.683685 23.202562,40.178177 
	C24.021355,35.908127 25.560751,34.611401 30.088810,35.084606 
	C51.089817,37.279324 67.553993,22.291849 68.000000,1.000000 
z"/>
<path fill="#1D4B98" opacity="1.000000" stroke="none" 
	d="
M185.908676,71.748924 
	C185.472977,71.249924 185.129333,70.473732 184.587631,70.293793 
	C177.297531,67.872215 178.576523,62.803749 180.145477,57.234444 
	C182.026688,50.556923 183.377808,43.730076 185.186172,36.223816 
	C187.323990,35.065784 189.279877,34.147015 191.137238,34.315323 
	C211.576080,36.167385 227.844559,21.537998 228.000000,1.000000 
	C251.354233,1.000000 274.708466,1.000000 298.445557,1.419363 
	C300.521118,25.293005 319.720428,37.342457 337.165863,34.224995 
	C338.640869,33.961411 340.362915,35.080414 341.970215,35.557106 
	C343.640472,43.097012 344.875061,50.769932 347.123047,58.133469 
	C348.828674,63.720516 348.773346,67.840363 342.274963,70.597206 
	C340.520294,71.559784 339.230743,72.160126 337.614319,72.516571 
	C336.632111,72.182411 335.976868,72.013298 335.321564,72.013115 
	C287.833893,72.000191 240.346237,71.994850 192.858597,72.031563 
	C191.588745,72.032539 190.319275,72.500931 188.760834,72.725861 
	C187.617584,72.383217 186.763138,72.066071 185.908676,71.748924 
z"/>
<path fill="#BD520A" opacity="1.000000" stroke="none" 
	d="
M185.924744,179.694977 
	C185.218430,181.080261 184.229080,182.393021 183.852432,183.862778 
	C181.637711,192.504730 179.565811,201.183289 177.172058,210.968506 
	C163.988876,198.942825 149.578125,192.739334 132.250092,197.912430 
	C122.883728,200.708679 115.264702,206.062073 109.906357,214.649902 
	C106.638710,215.000000 103.277428,215.000000 99.559830,214.652557 
	C85.805565,194.610031 59.162674,190.236359 39.868969,204.567505 
	C37.305092,206.471924 34.752041,208.390915 31.717049,210.659668 
	C28.529221,197.353714 25.452154,184.956818 22.729376,172.482590 
	C22.444216,171.176147 23.866486,168.882736 25.151691,167.947632 
	C33.403530,161.943512 39.870998,154.529510 44.630867,145.204529 
	C47.904457,145.098892 50.723297,145.005157 53.542297,145.000351 
	C90.385094,144.937439 127.227921,144.887085 164.348434,145.042114 
	C169.381729,153.990112 174.854095,162.107819 183.808685,167.646408 
	C184.566666,171.911301 185.245697,175.803131 185.924744,179.694977 
z"/>
<path fill="#FEFDFC" opacity="1.000000" stroke="none" 
	d="
M44.176186,145.257782 
	C39.870998,154.529510 33.403530,161.943512 25.151691,167.947632 
	C23.866486,168.882736 22.444216,171.176147 22.729376,172.482590 
	C25.452154,184.956818 28.529221,197.353714 31.717049,210.659668 
	C34.752041,208.390915 37.305092,206.471924 39.868969,204.567505 
	C59.162674,190.236359 85.805565,194.610031 99.101761,214.652557 
	C66.371071,215.000000 33.742142,215.000000 1.056608,215.000000 
	C1.056608,143.786850 1.056608,72.573647 1.056608,1.000000 
	C23.019583,1.000000 45.041134,1.000000 67.531342,1.000000 
	C67.553993,22.291849 51.089817,37.279324 30.088810,35.084606 
	C25.560751,34.611401 24.021355,35.908127 23.202562,40.178177 
	C21.763367,47.683685 20.045128,55.177349 17.770815,62.465996 
	C16.322226,67.108398 17.407839,69.673256 21.780111,71.262901 
	C22.700035,71.597366 23.495132,72.275162 24.869278,73.198837 
	C29.428276,77.399712 33.894958,80.844147 37.382397,85.092461 
	C40.864937,89.334808 43.367031,94.382004 46.172840,99.425491 
	C40.455952,110.083282 41.498409,119.952156 49.024929,128.538223 
	C47.397522,134.385254 45.786854,139.821518 44.176186,145.257782 
M7.918069,101.500580 
	C7.918069,111.119904 7.918069,120.739235 7.918069,130.510010 
	C18.934439,130.510010 29.458818,130.510010 40.063393,130.510010 
	C40.063393,127.402832 40.063393,124.648079 40.063393,121.395340 
	C33.369457,121.395340 26.957653,121.395340 19.998730,121.395340 
	C19.998730,108.344917 19.998730,95.786400 19.998730,83.283966 
	C15.688662,83.283966 11.943955,83.283966 7.918058,83.283966 
	C7.918058,89.220703 7.918058,94.860931 7.918069,101.500580 
z"/>
<path fill="#FEFDFD" opacity="1.000000" stroke="none" 
	d="
M227.531342,1.000000 
	C227.844559,21.537998 211.576080,36.167385 191.137238,34.315323 
	C189.279877,34.147015 187.323990,35.065784 185.200958,35.827007 
	C183.491653,35.805653 181.903885,34.907993 180.512650,35.148277 
	C161.604263,38.413918 142.580368,25.333357 140.931366,1.416793 
	C169.687561,1.000000 198.375122,1.000000 227.531342,1.000000 
z"/>
<path fill="#FEFEFD" opacity="1.000000" stroke="none" 
	d="
M342.254272,35.269306 
	C340.362915,35.080414 338.640869,33.961411 337.165863,34.224995 
	C319.720428,37.342457 300.521118,25.293005 298.914246,1.419363 
	C327.687561,1.000000 356.375122,1.000000 385.531342,1.000000 
	C385.539368,22.181931 368.389343,37.066349 347.226105,34.718338 
	C345.692108,34.548149 344.102203,34.882004 342.254272,35.269306 
z"/>
<path fill="#D29603" opacity="1.000000" stroke="none" 
	d="
M483.974030,145.044739 
	C488.583282,153.126923 494.655945,159.830460 502.330383,165.158081 
	C503.472931,165.951248 504.549255,168.210724 504.263489,169.477676 
	C501.524048,181.622971 498.485138,193.700714 495.303772,206.733124 
	C492.906860,205.019363 490.944641,203.695129 489.066162,202.261200 
	C469.404816,187.252548 445.390076,189.620178 429.237091,208.178268 
	C425.800079,212.127060 419.324402,212.242004 415.965363,208.413849 
	C399.364471,189.494629 375.844147,187.141159 355.803925,202.385132 
	C354.096741,203.683716 352.346985,204.926331 350.047638,206.612518 
	C347.229767,196.417847 344.530701,186.652969 341.436401,176.391891 
	C341.800598,172.200226 342.559998,168.504745 343.545837,164.602936 
	C349.525452,157.952606 355.278687,151.508606 361.498718,145.062866 
	C402.634979,145.055679 443.304504,145.050201 483.974030,145.044739 
z"/>
<path fill="#1E4B98" opacity="1.000000" stroke="none" 
	d="
M343.319427,164.809280 
	C342.559998,168.504745 341.800598,172.200226 341.073669,176.273132 
	C338.830688,185.789459 336.555206,194.928375 334.063171,204.937057 
	C331.346619,202.812866 329.201782,201.104156 327.024353,199.438049 
	C309.100677,185.723373 285.294830,188.277023 270.642365,205.478058 
	C266.254395,210.629242 260.712769,210.589020 256.301117,205.373993 
	C241.973328,188.437042 218.007141,185.791611 200.288177,199.205276 
	C198.048981,200.900391 195.865097,202.668640 193.068161,204.864120 
	C190.814407,196.289093 188.693604,188.219986 186.248779,179.922943 
	C185.245697,175.803131 184.566666,171.911301 183.747391,167.243500 
	C184.108383,165.679657 184.493347,164.779419 185.128998,164.121338 
	C191.006821,158.036026 196.927887,151.992493 203.315460,145.955780 
	C243.926956,145.959091 284.059387,145.943436 324.465393,146.116318 
	C329.486938,153.924469 335.485260,160.288559 343.319427,164.809280 
z"/>
<path fill="#EEDCAF" opacity="1.000000" stroke="none" 
	d="
M483.859619,144.707153 
	C443.304504,145.050201 402.634979,145.055679 361.613068,144.723633 
	C363.145203,139.571396 365.029724,134.756668 367.101288,129.639709 
	C368.361389,129.422394 369.509979,129.293839 370.490479,129.640533 
	C372.106049,130.211761 373.600159,131.665207 375.168793,131.700226 
	C377.341461,131.748688 379.535767,130.827911 381.879242,130.285492 
	C381.879242,121.622002 382.140045,113.164131 381.801208,104.730339 
	C381.500519,97.246521 375.242157,92.754463 367.729034,93.684799 
	C365.574310,93.951622 363.295624,93.217506 361.036926,92.586807 
	C357.624725,84.205833 351.471680,78.505371 344.978485,73.089607 
	C390.862854,73.060959 436.747223,73.033066 482.631592,73.002686 
	C488.118011,72.999054 493.604462,72.981934 499.557251,73.035522 
	C494.430573,79.580078 488.837555,86.060173 482.641357,92.803467 
	C481.376770,93.037933 480.715576,93.002518 480.053925,92.981461 
	C467.585419,92.584656 459.796722,98.666107 458.863220,109.525345 
	C457.711914,122.918365 463.451843,129.866196 477.077148,131.587845 
	C477.723419,131.669525 478.357269,131.848999 478.996918,131.982941 
	C480.579681,136.111801 482.162476,140.240677 483.859619,144.707153 
M429.758820,115.523140 
	C429.759155,113.024132 429.919159,110.512283 429.719543,108.029350 
	C429.468445,104.905975 430.901459,103.465851 433.815369,102.909546 
	C438.417511,102.030952 440.786621,103.696152 440.909698,108.642471 
	C441.098877,116.246048 440.959412,123.857811 440.959412,131.856583 
	C444.386871,131.856583 447.070953,132.162537 449.625153,131.719559 
	C450.794098,131.516830 452.583771,129.852722 452.598602,128.829712 
	C452.721680,120.345093 453.018219,111.806602 452.231812,103.380585 
	C451.397156,94.437111 443.566986,90.546509 435.357117,94.287964 
	C433.617218,95.080879 431.977234,96.093094 429.628235,97.362564 
	C429.628235,91.513039 429.628235,86.406815 429.628235,81.183243 
	C425.615814,81.183243 422.067871,81.183243 418.616455,81.183243 
	C418.616455,98.241951 418.616455,114.934982 418.616455,131.865494 
	C420.423645,131.865494 421.748047,131.877914 423.072174,131.863373 
	C429.378265,131.794189 429.752258,131.408997 429.758331,125.006592 
	C429.761047,122.174385 429.758667,119.342178 429.758820,115.523140 
M403.843903,93.961349 
	C403.032654,90.670799 402.221405,87.380257 401.363464,83.900345 
	C398.180603,83.900345 394.786804,83.900345 390.932983,83.900345 
	C390.932983,85.993134 391.090393,87.804291 390.882507,89.572502 
	C390.720093,90.954002 390.418793,93.217461 389.638092,93.479996 
	C385.084229,95.011421 386.914124,98.442780 386.734131,101.399078 
	C388.207611,101.845871 389.550659,102.253113 390.933044,102.672287 
	C390.933044,107.438736 390.915558,111.928757 390.936462,116.418594 
	C390.992188,128.388260 394.769135,131.982025 406.583588,131.336319 
	C413.733887,130.945541 414.403259,129.977219 412.482849,122.802338 
	C404.353302,123.671089 402.730560,123.029419 402.399292,117.905373 
	C402.069580,112.805000 402.327087,107.666672 402.327087,101.995193 
	C405.017944,101.995193 407.297943,101.906158 409.568146,102.017639 
	C412.432617,102.158318 413.332703,100.774300 413.314331,98.082344 
	C413.296906,95.525383 412.718964,93.841278 409.734253,93.990868 
	C408.074890,94.074020 406.407623,93.999313 403.843903,93.961349 
z"/>
<path fill="#2C4779" opacity="1.000000" stroke="none" 
	d="
M479.422058,131.932266 
	C478.357269,131.848999 477.723419,131.669525 477.077148,131.587845 
	C463.451843,129.866196 457.711914,122.918365 458.863220,109.525345 
	C459.796722,98.666107 467.585419,92.584656 480.053925,92.981461 
	C480.715576,93.002518 481.376770,93.037933 482.490356,93.120285 
	C492.846619,96.581032 495.914185,101.944733 494.664276,114.557137 
	C489.212952,114.557137 483.668274,114.557137 477.269836,114.486465 
	C474.365662,114.415802 472.315277,114.415802 469.976654,114.415802 
	C470.664093,119.392212 472.819397,122.058655 477.129517,122.807251 
	C482.699799,122.111908 488.270111,121.416557 494.095001,120.689430 
	C496.231506,127.723595 495.129089,129.611130 486.755035,131.043365 
	C484.471466,131.433929 482.150848,131.608109 479.422058,131.932266 
M477.244293,100.098991 
	C472.826691,100.480667 470.474884,102.765099 470.307678,107.558304 
	C474.817902,107.558304 479.044617,107.558304 483.337372,107.558304 
	C484.153198,102.955063 481.019836,101.574791 477.244293,100.098991 
z"/>
<path fill="#314D7F" opacity="1.000000" stroke="none" 
	d="
M516.393311,105.016228 
	C513.309326,105.533165 512.634827,107.123886 512.697754,109.686249 
	C512.864624,116.481308 512.754395,123.283173 512.754395,130.476761 
	C508.892639,130.476761 505.353516,130.476761 501.468170,130.476761 
	C501.468170,118.596321 501.468170,106.697533 501.468170,94.599396 
	C504.955841,94.599396 508.581696,94.599396 512.450989,94.599396 
	C512.632812,95.544861 512.872498,96.791054 513.057861,97.754738 
	C517.055054,96.184921 520.936951,94.660378 525.580688,92.836655 
	C525.580688,97.467438 525.580688,100.834846 525.580688,104.471481 
	C522.700134,104.627075 519.773132,104.785187 516.393311,105.016228 
z"/>
<path fill="#C7C3B6" opacity="1.000000" stroke="none" 
	d="
M477.091675,122.393951 
	C472.819397,122.058655 470.664093,119.392212 469.976654,114.415802 
	C472.315277,114.415802 474.365662,114.415802 476.830383,114.586655 
	C477.181122,117.165222 477.117462,119.572929 477.091675,122.393951 
z"/>
<path fill="#FAFAFB" opacity="1.000000" stroke="none" 
	d="
M366.914246,129.941956 
	C365.029724,134.756668 363.145203,139.571396 361.146301,144.725342 
	C355.278687,151.508606 349.525452,157.952606 343.545837,164.602936 
	C335.485260,160.288559 329.486938,153.924469 324.451233,145.891479 
	C324.163483,145.478088 323.957001,145.077484 323.876678,144.842194 
	C323.611694,144.317062 323.359497,144.109131 322.990173,143.620239 
	C321.652649,139.078156 320.364777,134.898987 319.498566,130.604584 
	C325.343109,130.659821 330.838440,131.462555 336.171814,130.851715 
	C344.052887,129.949081 345.298889,127.175415 342.563385,119.453873 
	C328.716949,125.744186 321.183685,124.365700 319.266235,114.477386 
	C327.537750,114.477386 335.697449,114.477386 343.766449,114.477386 
	C344.903107,98.787743 339.240662,92.700439 324.525574,92.985031 
	C323.696320,93.001068 322.865784,92.949455 322.183228,92.622185 
	C326.931061,86.225616 331.531433,80.136192 336.331390,73.964470 
	C336.790375,73.727493 336.970978,73.507942 337.306091,73.138245 
	C337.539459,73.052963 337.941223,72.760475 337.941223,72.760468 
	C339.230743,72.160126 340.520294,71.559784 342.097473,70.910553 
	C343.045746,71.500168 343.706451,72.138687 344.672791,72.933403 
	C351.471680,78.505371 357.624725,84.205833 360.618408,92.677307 
	C349.322937,94.514618 349.151245,94.702461 351.157898,102.939224 
	C355.354431,102.339493 359.533020,101.422768 363.728485,101.337708 
	C364.985352,101.312225 366.289307,103.608406 367.571686,104.840942 
	C366.320496,105.611870 365.159058,106.680054 363.799103,107.090721 
	C361.117920,107.900337 358.229675,108.069695 355.599945,108.995178 
	C348.887512,111.357506 346.008392,117.410713 348.121979,124.142662 
	C349.913788,129.849716 356.239105,132.962158 362.648590,131.259781 
	C364.085754,130.878067 365.493134,130.384186 366.914246,129.941956 
z"/>
<path fill="#EBC8B3" opacity="1.000000" stroke="none" 
	d="
M44.630863,145.204529 
	C45.786854,139.821518 47.397522,134.385254 49.346092,128.651489 
	C60.570160,135.085449 73.717224,132.275513 78.475067,122.200432 
	C85.885826,106.507599 75.657883,91.264091 58.555107,93.229637 
	C54.301914,93.718437 50.375538,97.050949 46.298943,99.076363 
	C43.367031,94.382004 40.864937,89.334808 37.382397,85.092461 
	C33.894958,80.844147 29.428276,77.399712 25.184601,73.346100 
	C77.681747,73.051743 130.385117,73.014214 183.347900,73.290497 
	C180.055893,76.774017 176.203308,79.669510 173.015472,83.170326 
	C166.316162,90.527397 162.611862,99.524071 159.799835,109.008606 
	C159.585205,109.002434 159.156509,108.982239 159.087845,108.581528 
	C157.630493,97.168907 152.236664,92.628731 140.919113,92.945358 
	C130.829330,93.227638 123.788193,99.607254 122.877953,109.291565 
	C121.729622,121.508995 126.627495,128.670639 137.521729,131.050873 
	C144.615112,132.600647 151.358200,131.463364 158.304611,129.007263 
	C158.991974,128.992950 159.383606,128.973755 159.856766,129.358521 
	C161.315781,134.786179 162.693268,139.809891 164.070740,144.833588 
	C127.227921,144.887085 90.385094,144.937439 53.542297,145.000351 
	C50.723297,145.005157 47.904457,145.098892 44.630863,145.204529 
M100.359421,114.879364 
	C99.327499,111.551895 98.304039,108.221771 97.262070,104.897461 
	C94.056389,94.669968 94.053543,94.668167 83.218422,95.057472 
	C82.975807,95.066185 82.742348,95.329597 82.387421,95.545486 
	C86.226295,106.316040 89.965843,117.122704 94.027046,127.807114 
	C94.539467,129.155228 96.624374,130.387009 98.190170,130.737808 
	C100.405807,131.234177 102.842033,131.061508 105.132118,130.768951 
	C106.183029,130.634705 107.672295,129.744095 108.008759,128.841034 
	C112.220947,117.535797 116.258080,106.165329 120.361580,94.751854 
	C110.206230,92.514801 108.932365,93.225952 106.279282,102.088882 
	C104.946907,106.539825 103.580658,110.981064 102.146065,115.399529 
	C102.082687,115.594742 101.184761,115.518997 100.359421,114.879364 
z"/>
<path fill="#FCFCFC" opacity="1.000000" stroke="none" 
	d="
M160.014481,109.014771 
	C162.611862,99.524071 166.316162,90.527397 173.015472,83.170326 
	C176.203308,79.669510 180.055893,76.774017 183.814774,73.348709 
	C184.459885,72.824768 184.897583,72.556458 185.621979,72.018539 
	C186.763138,72.066071 187.617584,72.383217 188.963394,72.875061 
	C189.612259,73.107330 189.769760,73.164917 190.031067,73.412689 
	C190.328873,73.829124 190.570587,73.977753 191.029144,74.340088 
	C192.591888,76.057961 194.275635,77.299446 195.325378,78.945290 
	C198.654663,84.165108 201.747284,89.535873 204.496323,94.907272 
	C201.762100,94.832214 197.778793,95.315704 197.462997,94.454422 
	C196.263794,91.183937 196.250854,87.478477 195.785690,83.868195 
	C192.209854,83.868195 188.684082,83.868195 184.836426,83.868195 
	C184.836426,87.386658 184.836426,90.506927 184.836426,93.537117 
	C183.166565,93.958122 181.828186,94.295555 180.635239,94.596329 
	C180.635239,97.135643 180.635239,99.271889 180.635239,101.669289 
	C182.108902,101.925430 183.458939,102.160088 185.016586,102.430832 
	C185.016586,108.750717 184.838272,114.733788 185.064789,120.701492 
	C185.310242,127.167656 188.512299,130.571136 194.870621,131.048035 
	C198.812668,131.343719 202.804276,130.978561 207.091705,130.939911 
	C207.622391,130.982666 207.834976,130.995544 208.053589,131.407471 
	C206.692398,135.865387 205.325195,139.924255 203.743652,144.109131 
	C203.254669,144.452972 203.094513,144.735718 202.950409,145.285431 
	C202.851944,145.487503 202.836380,145.936813 202.836380,145.936813 
	C196.927887,151.992493 191.006821,158.036026 185.128998,164.121338 
	C184.493347,164.779419 184.108383,165.679657 183.668442,166.870453 
	C174.854095,162.107819 169.381729,153.990112 164.348434,145.042114 
	C162.693268,139.809891 161.315781,134.786179 159.901550,128.941727 
	C159.609802,123.450294 159.354828,118.779625 159.062180,114.086426 
	C159.024490,114.063896 159.112305,114.063431 159.379745,113.799431 
	C159.769623,112.028542 159.892059,110.521660 160.014481,109.014771 
z"/>
<path fill="#23498A" opacity="1.000000" stroke="none" 
	d="
M189.927277,73.222496 
	C189.769760,73.164917 189.612259,73.107330 189.252182,72.900558 
	C190.319275,72.500931 191.588745,72.032539 192.858597,72.031563 
	C240.346237,71.994850 287.833893,72.000191 335.321564,72.013115 
	C335.976868,72.013298 336.632111,72.182411 337.614319,72.516579 
	C337.941223,72.760475 337.539459,73.052963 336.839294,73.047501 
	C292.552948,73.028496 248.966751,73.007477 205.380569,73.011360 
	C200.229477,73.011818 195.078369,73.148796 189.927277,73.222496 
z"/>
<path fill="#2B4678" opacity="1.000000" stroke="none" 
	d="
M46.172840,99.425491 
	C50.375538,97.050949 54.301914,93.718437 58.555107,93.229637 
	C75.657883,91.264091 85.885826,106.507599 78.475067,122.200432 
	C73.717224,132.275513 60.570160,135.085449 49.362831,128.240723 
	C41.498409,119.952156 40.455952,110.083282 46.172840,99.425491 
M63.811916,101.465134 
	C59.900585,100.460754 56.299446,101.391304 55.543407,105.472183 
	C54.726486,109.881706 54.522953,114.721649 55.477489,119.060188 
	C56.600578,124.164818 63.236347,125.136932 66.532265,121.213219 
	C70.423935,116.580276 69.341934,105.962135 63.811916,101.465134 
z"/>
<path fill="#2A477B" opacity="1.000000" stroke="none" 
	d="
M7.918063,101.000870 
	C7.918058,94.860931 7.918058,89.220703 7.918058,83.283966 
	C11.943955,83.283966 15.688662,83.283966 19.998730,83.283966 
	C19.998730,95.786400 19.998730,108.344917 19.998730,121.395340 
	C26.957653,121.395340 33.369457,121.395340 40.063393,121.395340 
	C40.063393,124.648079 40.063393,127.402832 40.063393,130.510010 
	C29.458818,130.510010 18.934439,130.510010 7.918069,130.510010 
	C7.918069,120.739235 7.918069,111.119904 7.918063,101.000870 
z"/>
<path fill="#23498A" opacity="1.000000" stroke="none" 
	d="
M203.315460,145.955780 
	C202.836380,145.936813 202.851944,145.487503 203.415619,145.269531 
	C243.971878,145.060196 283.964447,145.068832 323.957001,145.077484 
	C323.957001,145.077484 324.163483,145.478088 324.177643,145.702942 
	C284.059387,145.943436 243.926956,145.959091 203.315460,145.955780 
z"/>
<path fill="#304B7A" opacity="1.000000" stroke="none" 
	d="
M429.758728,116.016556 
	C429.758667,119.342178 429.761047,122.174385 429.758331,125.006592 
	C429.752258,131.408997 429.378265,131.794189 423.072174,131.863373 
	C421.748047,131.877914 420.423645,131.865494 418.616455,131.865494 
	C418.616455,114.934982 418.616455,98.241951 418.616455,81.183243 
	C422.067871,81.183243 425.615814,81.183243 429.628235,81.183243 
	C429.628235,86.406815 429.628235,91.513039 429.628235,97.362564 
	C431.977234,96.093094 433.617218,95.080879 435.357117,94.287964 
	C443.566986,90.546509 451.397156,94.437111 452.231812,103.380585 
	C453.018219,111.806602 452.721680,120.345093 452.598602,128.829712 
	C452.583771,129.852722 450.794098,131.516830 449.625153,131.719559 
	C447.070953,132.162537 444.386871,131.856583 440.959412,131.856583 
	C440.959412,123.857811 441.098877,116.246048 440.909698,108.642471 
	C440.786621,103.696152 438.417511,102.030952 433.815369,102.909546 
	C430.901459,103.465851 429.468445,104.905975 429.719543,108.029350 
	C429.919159,110.512283 429.759155,113.024132 429.758728,116.016556 
z"/>
<path fill="#2E4979" opacity="1.000000" stroke="none" 
	d="
M367.101288,129.639694 
	C365.493134,130.384186 364.085754,130.878067 362.648590,131.259781 
	C356.239105,132.962158 349.913788,129.849716 348.121979,124.142662 
	C346.008392,117.410713 348.887512,111.357506 355.599945,108.995178 
	C358.229675,108.069695 361.117920,107.900337 363.799103,107.090721 
	C365.159058,106.680054 366.320496,105.611870 367.571686,104.840942 
	C366.289307,103.608406 364.985352,101.312225 363.728485,101.337708 
	C359.533020,101.422768 355.354431,102.339493 351.157898,102.939224 
	C349.151245,94.702461 349.322937,94.514618 360.655273,93.032837 
	C363.295624,93.217506 365.574310,93.951622 367.729034,93.684799 
	C375.242157,92.754463 381.500519,97.246521 381.801208,104.730339 
	C382.140045,113.164131 381.879242,121.622002 381.879242,130.285492 
	C379.535767,130.827911 377.341461,131.748688 375.168793,131.700226 
	C373.600159,131.665207 372.106049,130.211761 370.490479,129.640533 
	C369.509979,129.293839 368.361389,129.422394 367.101288,129.639694 
M368.295746,113.907173 
	C366.199677,114.276459 363.657715,114.047745 362.133636,115.184158 
	C360.625854,116.308418 359.250763,118.946419 359.511139,120.663612 
	C359.703186,121.930267 362.581970,123.594749 364.326477,123.672485 
	C369.960236,123.923569 372.097198,119.287971 368.295746,113.907173 
z"/>
<path fill="#284477" opacity="1.000000" stroke="none" 
	d="
M404.293884,93.978554 
	C406.407623,93.999313 408.074890,94.074020 409.734253,93.990868 
	C412.718964,93.841278 413.296906,95.525383 413.314331,98.082344 
	C413.332703,100.774300 412.432617,102.158318 409.568146,102.017639 
	C407.297943,101.906158 405.017944,101.995193 402.327087,101.995193 
	C402.327087,107.666672 402.069580,112.805000 402.399292,117.905373 
	C402.730560,123.029419 404.353302,123.671089 412.482849,122.802338 
	C414.403259,129.977219 413.733887,130.945541 406.583588,131.336319 
	C394.769135,131.982025 390.992188,128.388260 390.936462,116.418594 
	C390.915558,111.928757 390.933044,107.438736 390.933044,102.672287 
	C389.550659,102.253113 388.207611,101.845871 386.734131,101.399078 
	C386.914124,98.442780 385.084229,95.011421 389.638092,93.479996 
	C390.418793,93.217461 390.720093,90.954002 390.882507,89.572502 
	C391.090393,87.804291 390.932983,85.993134 390.932983,83.900345 
	C394.786804,83.900345 398.180603,83.900345 401.363464,83.900345 
	C402.221405,87.380257 403.032654,90.670799 404.293884,93.978554 
z"/>
<path fill="#CDC7B4" opacity="1.000000" stroke="none" 
	d="
M477.600159,100.120972 
	C481.019836,101.574791 484.153198,102.955063 483.337372,107.558304 
	C479.044617,107.558304 474.817902,107.558304 470.307678,107.558304 
	C470.474884,102.765099 472.826691,100.480667 477.600159,100.120972 
z"/>
<path fill="#B8C7DE" opacity="1.000000" stroke="none" 
	d="
M204.931381,94.848282 
	C201.747284,89.535873 198.654663,84.165108 195.325378,78.945290 
	C194.275635,77.299446 192.591888,76.057961 191.512360,74.322845 
	C239.928238,74.025101 288.030029,74.035934 336.131836,74.046768 
	C331.531433,80.136192 326.931061,86.225616 321.895905,92.844269 
	C313.412170,95.681503 308.861176,100.936150 307.853333,109.301483 
	C306.748108,118.475258 309.568146,125.656738 318.177063,130.291519 
	C318.504547,130.752884 318.773041,130.909973 319.043610,130.911377 
	C318.988556,130.853287 319.076904,130.719818 319.076904,130.719818 
	C320.364777,134.898987 321.652649,139.078156 322.517456,143.625916 
	C282.715576,143.990707 243.336777,143.986923 203.957977,143.983139 
	C205.325195,139.924255 206.692398,135.865387 208.332306,131.150452 
	C209.179047,126.891327 209.753098,123.288269 210.556961,119.945358 
	C213.149612,126.756783 217.872925,130.404007 224.656235,131.618195 
	C235.456787,133.551453 244.937103,127.837219 246.904480,118.144699 
	C249.442978,105.638496 244.229935,95.831955 233.718933,93.340569 
	C223.452408,90.907112 215.883362,94.648178 209.806458,104.847580 
	C208.639725,103.763840 207.772705,102.843903 206.985138,101.498680 
	C206.475266,98.956642 209.176529,95.712257 204.931381,94.848282 
M285.066406,111.429520 
	C285.066406,101.691483 285.066406,91.953445 285.066406,82.414734 
	C280.545044,82.414734 276.825897,82.414734 273.315826,82.414734 
	C273.315826,98.725151 273.315826,114.616409 273.315826,130.489975 
	C284.093414,130.489975 294.484497,130.489975 304.919067,130.489975 
	C304.919067,127.370499 304.919067,124.621895 304.919067,121.340012 
	C298.211639,121.340012 291.822479,121.340012 285.066437,121.340012 
	C285.066437,118.003639 285.066437,115.203110 285.066406,111.429520 
z"/>
<path fill="#2B477A" opacity="1.000000" stroke="none" 
	d="
M318.060913,130.084885 
	C309.568146,125.656738 306.748108,118.475258 307.853333,109.301483 
	C308.861176,100.936150 313.412170,95.681503 321.748474,93.151413 
	C322.865784,92.949455 323.696320,93.001068 324.525574,92.985031 
	C339.240662,92.700439 344.903107,98.787743 343.766449,114.477386 
	C335.697449,114.477386 327.537750,114.477386 319.266235,114.477386 
	C321.183685,124.365700 328.716949,125.744186 342.563385,119.453873 
	C345.298889,127.175415 344.052887,129.949081 336.171814,130.851715 
	C330.838440,131.462555 325.343109,130.659821 319.498566,130.604584 
	C319.076904,130.719818 318.988556,130.853287 319.120056,130.607056 
	C318.854675,130.268829 318.457794,130.176865 318.060913,130.084885 
M322.079559,101.410591 
	C320.952759,103.207039 319.825958,105.003479 318.473816,107.159134 
	C323.960693,107.159134 328.302673,107.159134 332.733643,107.159134 
	C331.269287,100.513565 329.055267,99.246750 322.079559,101.410591 
z"/>
<path fill="#B2C8ED" opacity="1.000000" stroke="none" 
	d="
M336.331390,73.964470 
	C288.030029,74.035934 239.928238,74.025101 191.343216,74.031517 
	C190.570587,73.977753 190.328873,73.829124 190.031067,73.412689 
	C195.078369,73.148796 200.229477,73.011818 205.380569,73.011360 
	C248.966751,73.007477 292.552948,73.028496 336.605927,73.132782 
	C336.970978,73.507942 336.790375,73.727493 336.331390,73.964470 
z"/>
<path fill="#B2C8ED" opacity="1.000000" stroke="none" 
	d="
M203.743652,144.109131 
	C243.336777,143.986923 282.715576,143.990707 322.567078,143.988831 
	C323.359497,144.109131 323.611694,144.317062 323.876678,144.842194 
	C283.964447,145.068832 243.971878,145.060196 203.514084,145.067459 
	C203.094513,144.735718 203.254669,144.452972 203.743652,144.109131 
z"/>
<path fill="#2B4577" opacity="1.000000" stroke="none" 
	d="
M158.008865,129.002365 
	C151.358200,131.463364 144.615112,132.600647 137.521729,131.050873 
	C126.627495,128.670639 121.729622,121.508995 122.877953,109.291565 
	C123.788193,99.607254 130.829330,93.227638 140.919113,92.945358 
	C152.236664,92.628731 157.630493,97.168907 159.027145,109.001610 
	C159.060837,111.236076 159.086563,112.649757 159.112305,114.063431 
	C159.112305,114.063431 159.024490,114.063896 158.592163,114.172562 
	C150.246597,114.281235 142.333359,114.281235 132.712097,114.281235 
	C135.006790,117.600578 135.970108,120.419373 137.914703,121.548958 
	C144.680298,125.478996 151.302322,122.593979 158.008865,119.523643 
	C158.008865,123.091087 158.008865,126.046722 158.008865,129.002365 
M135.348907,107.623650 
	C139.414627,107.623650 143.480331,107.623650 147.843475,107.623650 
	C147.377472,102.545906 145.256073,99.836205 140.830795,100.220528 
	C136.856766,100.565651 133.905334,102.544884 135.348907,107.623650 
z"/>
<path fill="#2B4679" opacity="1.000000" stroke="none" 
	d="
M100.517502,115.224419 
	C101.184761,115.518997 102.082687,115.594742 102.146065,115.399529 
	C103.580658,110.981064 104.946907,106.539825 106.279282,102.088882 
	C108.932365,93.225952 110.206230,92.514801 120.361580,94.751854 
	C116.258080,106.165329 112.220947,117.535797 108.008759,128.841034 
	C107.672295,129.744095 106.183029,130.634705 105.132118,130.768951 
	C102.842033,131.061508 100.405807,131.234177 98.190170,130.737808 
	C96.624374,130.387009 94.539467,129.155228 94.027046,127.807114 
	C89.965843,117.122704 86.226295,106.316040 82.387421,95.545486 
	C82.742348,95.329597 82.975807,95.066185 83.218422,95.057472 
	C94.053543,94.668167 94.056389,94.669968 97.262070,104.897461 
	C98.304039,108.221771 99.327499,111.551895 100.517502,115.224419 
z"/>
<path fill="#D6BDB3" opacity="1.000000" stroke="none" 
	d="
M158.304611,129.007263 
	C158.008865,126.046722 158.008865,123.091087 158.008865,119.523643 
	C151.302322,122.593979 144.680298,125.478996 137.914703,121.548958 
	C135.970108,120.419373 135.006790,117.600578 132.712097,114.281235 
	C142.333359,114.281235 150.246597,114.281235 158.629852,114.195091 
	C159.354828,118.779625 159.609802,123.450294 159.820007,128.537766 
	C159.383606,128.973755 158.991974,128.992950 158.304611,129.007263 
z"/>
<path fill="#D6BDB3" opacity="1.000000" stroke="none" 
	d="
M159.379730,113.799431 
	C159.086563,112.649757 159.060837,111.236076 159.095810,109.402321 
	C159.156509,108.982239 159.585205,109.002434 159.799835,109.008606 
	C159.892059,110.521660 159.769623,112.028542 159.379730,113.799431 
z"/>
<path fill="#29467A" opacity="1.000000" stroke="none" 
	d="
M204.496323,94.907272 
	C209.176529,95.712257 206.475266,98.956642 206.531921,101.530823 
	C202.911499,101.988243 199.823746,101.988243 196.282013,101.988243 
	C196.282013,106.250168 196.279404,110.011742 196.282516,113.773323 
	C196.290268,123.127045 197.586639,124.239105 206.773636,122.557877 
	C206.773636,125.365959 206.773636,128.138000 206.773636,130.910034 
	C202.804276,130.978561 198.812668,131.343719 194.870621,131.048035 
	C188.512299,130.571136 185.310242,127.167656 185.064789,120.701492 
	C184.838272,114.733788 185.016586,108.750717 185.016586,102.430832 
	C183.458939,102.160088 182.108902,101.925430 180.635239,101.669289 
	C180.635239,99.271889 180.635239,97.135643 180.635239,94.596329 
	C181.828186,94.295555 183.166565,93.958122 184.836426,93.537117 
	C184.836426,90.506927 184.836426,87.386658 184.836426,83.868195 
	C188.684082,83.868195 192.209854,83.868195 195.785690,83.868195 
	C196.250854,87.478477 196.263794,91.183937 197.462997,94.454422 
	C197.778793,95.315704 201.762100,94.832214 204.496323,94.907272 
z"/>
<path fill="#F7F9FA" opacity="1.000000" stroke="none" 
	d="
M207.091705,130.939911 
	C206.773636,128.138000 206.773636,125.365959 206.773636,122.557877 
	C197.586639,124.239105 196.290268,123.127045 196.282516,113.773323 
	C196.279404,110.011742 196.282013,106.250168 196.282013,101.988243 
	C199.823746,101.988243 202.911499,101.988243 206.452454,101.956100 
	C207.772705,102.843903 208.639725,103.763840 209.776199,105.311600 
	C210.139481,110.521347 210.233307,115.103279 210.327133,119.685211 
	C209.753098,123.288269 209.179047,126.891327 208.326294,130.751404 
	C207.834976,130.995544 207.622391,130.982666 207.091705,130.939911 
z"/>
<path fill="#E3C5B3" opacity="1.000000" stroke="none" 
	d="
M64.180122,101.604584 
	C69.341934,105.962135 70.423935,116.580276 66.532265,121.213219 
	C63.236347,125.136932 56.600578,124.164818 55.477489,119.060188 
	C54.522953,114.721649 54.726486,109.881706 55.543407,105.472183 
	C56.299446,101.391304 59.900585,100.460754 64.180122,101.604584 
z"/>
<path fill="#EEEEEA" opacity="1.000000" stroke="none" 
	d="
M368.712158,113.905273 
	C372.097198,119.287971 369.960236,123.923569 364.326477,123.672485 
	C362.581970,123.594749 359.703186,121.930267 359.511139,120.663612 
	C359.250763,118.946419 360.625854,116.308418 362.133636,115.184158 
	C363.657715,114.047745 366.199677,114.276459 368.712158,113.905273 
z"/>
<path fill="#29467A" opacity="1.000000" stroke="none" 
	d="
M210.556961,119.945358 
	C210.233307,115.103279 210.139481,110.521347 210.075897,105.475388 
	C215.883362,94.648178 223.452408,90.907112 233.718933,93.340569 
	C244.229935,95.831955 249.442978,105.638496 246.904480,118.144699 
	C244.937103,127.837219 235.456787,133.551453 224.656235,131.618195 
	C217.872925,130.404007 213.149612,126.756783 210.556961,119.945358 
M222.144608,105.984962 
	C222.102829,110.068657 221.326111,114.339790 222.301453,118.164078 
	C222.865051,120.373863 226.223862,123.240532 228.380920,123.288658 
	C230.535217,123.336716 233.957489,120.629585 234.676376,118.428810 
	C235.790512,115.018082 235.322083,110.995911 235.073227,107.263077 
	C234.857483,104.026886 233.086548,101.646553 229.568863,101.185898 
	C226.207108,100.745651 223.758591,102.025467 222.144608,105.984962 
z"/>
<path fill="#274479" opacity="1.000000" stroke="none" 
	d="
M285.066406,111.916054 
	C285.066437,115.203110 285.066437,118.003639 285.066437,121.340012 
	C291.822479,121.340012 298.211639,121.340012 304.919067,121.340012 
	C304.919067,124.621895 304.919067,127.370499 304.919067,130.489975 
	C294.484497,130.489975 284.093414,130.489975 273.315826,130.489975 
	C273.315826,114.616409 273.315826,98.725151 273.315826,82.414734 
	C276.825897,82.414734 280.545044,82.414734 285.066406,82.414734 
	C285.066406,91.953445 285.066406,101.691483 285.066406,111.916054 
z"/>
<path fill="#FAFAFB" opacity="1.000000" stroke="none" 
	d="
M318.177063,130.291519 
	C318.457794,130.176865 318.854675,130.268829 319.175110,130.665131 
	C318.773041,130.909973 318.504547,130.752884 318.177063,130.291519 
z"/>
<path fill="#E2E7EF" opacity="1.000000" stroke="none" 
	d="
M322.404816,101.210991 
	C329.055267,99.246750 331.269287,100.513565 332.733643,107.159134 
	C328.302673,107.159134 323.960693,107.159134 318.473816,107.159134 
	C319.825958,105.003479 320.952759,103.207039 322.404816,101.210991 
z"/>
<path fill="#CFB9B2" opacity="1.000000" stroke="none" 
	d="
M134.975067,107.480850 
	C133.905334,102.544884 136.856766,100.565651 140.830795,100.220528 
	C145.256073,99.836205 147.377472,102.545906 147.843475,107.623650 
	C143.480331,107.623650 139.414627,107.623650 134.975067,107.480850 
z"/>
<path fill="#B3C3DC" opacity="1.000000" stroke="none" 
	d="
M222.295898,105.613861 
	C223.758591,102.025467 226.207108,100.745651 229.568863,101.185898 
	C233.086548,101.646553 234.857483,104.026886 235.073227,107.263077 
	C235.322083,110.995911 235.790512,115.018082 234.676376,118.428810 
	C233.957489,120.629585 230.535217,123.336716 228.380920,123.288658 
	C226.223862,123.240532 222.865051,120.373863 222.301453,118.164078 
	C221.326111,114.339790 222.102829,110.068657 222.295898,105.613861 
z"/>
</svg>